<?xml version="1.0" encoding="utf-8"?>
<!-- Generator: Adobe Illustrator 24.3.0, SVG Export Plug-In . SVG Version: 6.00 Build 0)  -->
<svg version="1.1" id="Layer_1" xmlns="http://www.w3.org/2000/svg" xmlns:xlink="http://www.w3.org/1999/xlink" x="0px" y="0px"
	 viewBox="0 0 257.7 101.9" style="enable-background:new 0 0 257.7 101.9;" xml:space="preserve">
<style type="text/css">
	.st0{fill:#FFFFFF;}
	.st1{fill:#F5811F;}
</style>
<path class="st0" d="M38.4,95.9c8.2-18.5,20.2-46.1,24.3-55.6c3-6.9,5.8-12.1,8.5-15.6C80.3,13.3,94.3,6.4,109,6.2
	c0.3,0,0.4,0.1,0.3,0.5L69.9,95.7c-0.2,0.4-0.6,0.7-1.1,0.7l-30.2,0c-0.2,0-0.3-0.1-0.3-0.3C38.4,96,38.4,96,38.4,95.9z"/>
<path class="st1" d="M35.6,94.5c-18-19.9-23.7-47.6-27-74.3c0-0.2,0.1-0.3,0.2-0.3h0c0.1,0,0.2,0,0.2,0.2
	c3.1,15.6,14.7,25.9,29.4,30.5c6.1,2,10.6,5.5,10.5,12.2c0,2-0.6,4.3-1.8,7c-3.6,8-7.3,16.3-11,24.7c-0.1,0.1-0.2,0.2-0.4,0.1
	C35.7,94.5,35.6,94.5,35.6,94.5z"/>
<path class="st0" d="M126.8,44.4h8.9c0.2,0,0.4,0.2,0.4,0.4v49.5c0,0.2-0.2,0.4-0.4,0.4h-8.9c-0.2,0-0.4-0.2-0.4-0.4V44.8
	C126.5,44.6,126.6,44.4,126.8,44.4z"/>
<path class="st0" d="M170.5,45.1h9.5c0.2,0,0.3,0.1,0.3,0.3l0,48.9c0,0.2-0.1,0.3-0.3,0.3l-9.2,0c-0.1,0-0.2-0.1-0.3-0.1L150,62.4
	c-0.1-0.1-0.3-0.2-0.4-0.1c-0.1,0.1-0.1,0.2-0.1,0.3l0,31.8c0,0.2-0.1,0.3-0.3,0.3l0,0l-9,0c-0.2,0-0.3-0.1-0.3-0.3l0-48.9
	c0-0.2,0.1-0.3,0.3-0.3c0,0,0,0,0,0l10.4,0c0.1,0,0.2,0.1,0.3,0.2l18.9,30.6c0.1,0.1,0.3,0.2,0.4,0.1c0.1-0.1,0.1-0.1,0.1-0.3
	l-0.2-30.2C170.1,45.3,170.3,45.1,170.5,45.1z"/>
<path class="st0" d="M230.5,65.4c0.1,5.3,0.1,10.7,0,16c0,3.7,2.6,6.3,6.4,5.7c2.6-0.5,4.1-2.3,4.5-5.4c0-0.2,0.2-0.4,0.4-0.4
	l8.6,0.1c0.2,0,0.3,0.1,0.3,0.3c-0.4,4.8-2,8.3-5,10.7c-5,4.1-14,4.2-19.2,0.7c-3.8-2.5-5.7-6.4-5.8-11.5
	c-0.2-11.1-0.2-22.2-0.1-33.4c0-0.2,0.1-0.3,0.3-0.3l9.5,0.1c0.1,0,0.2,0.1,0.2,0.2l0,8.2c0,0.4,0.4,0.8,0.8,0.8c0,0,0,0,0,0
	l10.6-0.1c0.4,0,0.6,0.2,0.6,0.6l0,6.7c0,0.3-0.2,0.5-0.5,0.5l-10.9-0.1C230.7,64.8,230.5,65,230.5,65.4z"/>
<path class="st0" d="M113.2,91.9c0-0.1-0.1-0.2-0.3-0.2c-0.1,0-0.1,0-0.1,0.1c-3.6,3-7.9,4.2-13,3.8c-6.8-0.6-10.9-4.7-10.3-11.7
	c0.5-5.7,3.8-9.1,9.8-10.3c3-0.6,6-1.1,8.9-1.6c1.1-0.2,2.2-0.6,3.3-1.1c0.3-0.2,0.6-0.4,0.7-0.8c1.3-3.8-1.7-5.5-4.9-5.5
	c-4.6-0.1-6,0.7-7.6,5c-0.1,0.3-0.4,0.4-0.7,0.4L91.3,70c-0.3,0-0.6-0.3-0.6-0.6c0,0,0,0,0-0.1c0.8-8.6,6.5-12.3,14.6-12.2
	c1.9,0,3.7,0.1,5.4,0.2c9,0.5,12,6.8,12,15c0,8.3,0,15.7-0.1,22.1c0,0.2-0.2,0.5-0.4,0.5c0,0,0,0,0,0c-2.7-0.2-5.4-0.2-8.1,0
	c-0.4,0-0.7-0.2-0.7-0.6L113.2,91.9z M112.5,77.2c-2.8,1-5.8,1.8-8.9,2.3c-4.8,0.8-6.2,8.8-0.3,8.9c4.2,0.1,7.1-1.4,8.7-4.4
	c1.1-2,0.4-4.3,0.9-6.5c0-0.2-0.1-0.3-0.2-0.4C112.6,77.2,112.5,77.2,112.5,77.2z"/>
<path class="st0" d="M192.6,79.2c0.5,6,3.6,8.8,9.2,8.5c2.2-0.1,3.9-1.1,4.8-2.8c0.4-0.8,1.1-1.2,2-1.2l7.2,0c1.1,0,1.4,0.5,1,1.5
	c-4.2,10.3-15.1,12.5-24.7,8.8c-9.3-3.6-10.8-16.8-8.6-25c1.4-5.3,6-10.2,11.2-11.3c2-0.4,4.4-0.6,7.3-0.5
	c11.8,0.3,15.7,10.9,15.6,21.2c0,0.4-0.2,0.7-0.7,0.7l-24.2-0.1C192.8,78.9,192.6,79,192.6,79.2C192.6,79.2,192.6,79.2,192.6,79.2z
	 M193.1,72.5l14.5,0c0.1,0,0.2-0.1,0.2-0.2v-0.1c0-4.1-3.3-7.4-7.4-7.5l0,0c-4.1,0-7.4,3.3-7.4,7.4c0,0,0,0,0,0v0.1
	C193,72.4,193,72.5,193.1,72.5z"/>
</svg>
